<svg xmlns="http://www.w3.org/2000/svg" data-name="Layer 1" viewBox="0 0 68 68" id="candidate-form"><path d="M57 2H23.94a.87.87 0 0 0-.27.06h-.08a1 1 0 0 0-.3.19l-13 13a1.18 1.18 0 0 0-.19.3.36.36 0 0 0 0 .09 2 2 0 0 0 0 .26V65a1 1 0 0 0 1 1H57a1 1 0 0 0 1-1V3a1 1 0 0 0-1-1zM23 5.41V15h-9.59zM56 64H12V17h12a1 1 0 0 0 1-1V4h31z"></path><path d="M48 39c0-2.52-1-3-3-3s-3 .48-3 3c0 3.31 1.79 7 3 7s3-3.69 3-7zM45 48a7 7 0 0 0-6.93 6h13.86A7 7 0 0 0 45 48zM23 48a7 7 0 0 0-6.93 6h13.86A7 7 0 0 0 23 48zM23 46c1.21 0 3-3.69 3-7 0-2.52-1-3-3-3s-3 .48-3 3c0 3.31 1.79 7 3 7zM33 35a8 8 0 1 0-8-8 8 8 0 0 0 8 8zm0-12a4 4 0 1 1-4 4 4 4 0 0 1 4-4z"></path><circle cx="33" cy="27" r="2"></circle><path d="M30 10h23a1 1 0 0 0 0-2H30a1 1 0 0 0 0 2zM30 16h23a1 1 0 0 0 0-2H30a1 1 0 0 0 0 2z"></path></svg>